<?xml version="1.0" encoding="UTF-8"?>
<svg xmlns="http://www.w3.org/2000/svg" viewBox="0 0 24 24">
    <path style="text-indent:0;text-align:start;line-height:normal;text-transform:none;block-progression:tb;-inkscape-font-specification:Sans" d="M 10 2 C 9.2424543 2 8.4800499 2.2499172 7.90625 2.78125 C 7.3324501 3.3125828 7 4.1147201 7 5 L 9 5 C 9 4.5752799 9.1287999 4.3911672 9.28125 4.25 C 9.4337001 4.1088328 9.6625457 4 10 4 C 10.353106 4 10.677797 4.0117649 11 4.03125 L 11 5 L 12 5 L 12 4.125 C 14.299644 4.4293749 15.710987 5.2506946 16.59375 6.125 C 17.708597 7.2291658 18 8.5501985 18 9 C 17.999917 9.0011844 18.00012 9.0294841 18 9.03125 C 17.988057 10.215532 17.310816 11.453451 16.21875 12.40625 C 15.116896 13.367589 13.631788 14 12.15625 14 C 10.56592 14 9.2188676 13.614997 8.34375 12.96875 C 7.4686324 12.322503 7 11.466743 7 10.1875 C 7 9.7613455 7.1956034 9.1578606 7.5625 8.71875 C 7.9293966 8.2796394 8.4008489 8 9 8 L 12.375 8 L 12.75 8.84375 L 12.9375 9.25 L 13.375 9.375 L 14.78125 9.8125 C 14.70193 10.046204 14.62815 10.289097 14.53125 10.5 C 14.292881 11.01881 14 11.421183 14 12 L 15 12 C 15 11.95882 15.207119 11.50694 15.46875 10.9375 C 15.730381 10.36806 16 9.613802 16 8.71875 L 16 7 L 15 7 L 15 7.78125 L 14.375 7.59375 L 13.90625 6.59375 L 13.625 6 L 13 6 L 9 6 C 6.254 6 2 8.25825 2 13.65625 C 2 18.20425 4 22 4 22 L 6 22 C 6 20.893763 6.3860114 19.329223 7.3125 18.125 C 8.2389886 16.920777 9.6569481 16 12.0625 16 C 12.094137 16.000253 12.12453 16 12.15625 16 C 14.182712 16 16.084604 15.168411 17.53125 13.90625 C 17.774351 13.69415 18.002462 13.45601 18.21875 13.21875 C 18.388131 14.195997 18.659494 15.174323 19.1875 16.03125 C 19.748979 16.942502 20.754959 17.71875 22 17.71875 L 22 15.71875 C 21.487041 15.71875 21.236896 15.536623 20.90625 15 C 20.575604 14.463377 20.299753 13.579715 20.15625 12.6875 C 19.950737 11.409744 19.947246 10.357697 19.96875 9.71875 C 19.999524 9.4859325 20 9.2390113 20 9 C 20 7.8908015 19.520653 6.2248342 18 4.71875 C 16.479347 3.2126658 13.927489 2 10 2 z M 10.46875 8.75 L 9.65625 9.3125 C 9.65625 9.3125 10 9.8104256 10 10.5625 C 10 11.48044 9.28125 12.21875 9.28125 12.21875 L 9.96875 12.9375 C 9.96875 12.9375 11 11.98656 11 10.5625 C 11 9.4865744 10.46875 8.75 10.46875 8.75 z M 13 17 C 12.447715 17 12 17.447715 12 18 C 12 18.552285 12.447715 19 13 19 C 13.552285 19 14 18.552285 14 18 C 14 17.447715 13.552285 17 13 17 z M 20 18 C 19.447715 18 19 18.447715 19 19 C 19 19.552285 19.447715 20 20 20 C 20.552285 20 21 19.552285 21 19 C 21 18.447715 20.552285 18 20 18 z M 15 19 C 14.447715 19 14 19.447715 14 20 C 14 20.552285 14.447715 21 15 21 C 15.552285 21 16 20.552285 16 20 C 16 19.447715 15.552285 19 15 19 z M 18 20 C 17.447715 20 17 20.447715 17 21 C 17 21.552285 17.447715 22 18 22 C 18.552285 22 19 21.552285 19 21 C 19 20.447715 18.552285 20 18 20 z" overflow="visible" font-family="Sans"/>
</svg>